<svg width="25" height="24" viewBox="0 0 25 24" fill="none" xmlns="http://www.w3.org/2000/svg">
<g id="Linear / Transport, Parts, Service / Transmission" opacity="0.7">
<path id="Vector" d="M6.83337 4C6.83337 5.10457 5.93794 6 4.83337 6C3.7288 6 2.83337 5.10457 2.83337 4C2.83337 2.89543 3.7288 2 4.83337 2C5.93794 2 6.83337 2.89543 6.83337 4Z" stroke="#0369A1" stroke-width="1.5"/>
<path id="Vector_2" d="M6.83337 20C6.83337 21.1046 5.93794 22 4.83337 22C3.7288 22 2.83337 21.1046 2.83337 20C2.83337 18.8954 3.7288 18 4.83337 18C5.93794 18 6.83337 18.8954 6.83337 20Z" stroke="#0369A1" stroke-width="1.5"/>
<path id="Vector_3" d="M14.8334 20C14.8334 21.1046 13.938 22 12.8334 22C11.7288 22 10.8334 21.1046 10.8334 20C10.8334 18.8954 11.7288 18 12.8334 18C13.938 18 14.8334 18.8954 14.8334 20Z" stroke="#0369A1" stroke-width="1.5"/>
<path id="Vector_4" d="M14.8334 4C14.8334 5.10457 13.938 6 12.8334 6C11.7288 6 10.8334 5.10457 10.8334 4C10.8334 2.89543 11.7288 2 12.8334 2C13.938 2 14.8334 2.89543 14.8334 4Z" stroke="#0369A1" stroke-width="1.5"/>
<path id="Vector_5" d="M22.8334 4C22.8334 5.10457 21.938 6 20.8334 6C19.7288 6 18.8334 5.10457 18.8334 4C18.8334 2.89543 19.7288 2 20.8334 2C21.938 2 22.8334 2.89543 22.8334 4Z" stroke="#0369A1" stroke-width="1.5"/>
<path id="Vector_6" d="M4.83337 6V18" stroke="#0369A1" stroke-width="1.5" stroke-linecap="round"/>
<path id="Vector_7" d="M12.8334 6V18" stroke="#0369A1" stroke-width="1.5" stroke-linecap="round"/>
<path id="Vector_8" d="M20.8334 6V8C20.8334 9.88562 20.8334 10.8284 20.2476 11.4142C19.6618 12 18.719 12 16.8334 12H4.83337" stroke="#0369A1" stroke-width="1.5" stroke-linecap="round"/>
<path id="Vector_9" d="M18.8334 15V14.25C18.4192 14.25 18.0834 14.5858 18.0834 15H18.8334ZM18.0834 22C18.0834 22.4142 18.4192 22.75 18.8334 22.75C19.2476 22.75 19.5834 22.4142 19.5834 22H18.0834ZM22.1938 22.3916C22.41 22.7449 22.8718 22.8559 23.225 22.6396C23.5783 22.4234 23.6893 21.9616 23.473 21.6084L22.1938 22.3916ZM18.8334 15.75H21.1191V14.25H18.8334V15.75ZM19.5834 18.5V15H18.0834V18.5H19.5834ZM22.0834 16.75C22.0834 17.3169 21.6372 17.75 21.1191 17.75V19.25C22.4946 19.25 23.5834 18.1161 23.5834 16.75H22.0834ZM21.1191 15.75C21.6372 15.75 22.0834 16.1831 22.0834 16.75H23.5834C23.5834 15.3839 22.4946 14.25 21.1191 14.25V15.75ZM21.1191 17.75H20.6905V19.25H21.1191V17.75ZM20.6905 17.75H18.8334V19.25H20.6905V17.75ZM20.0509 18.8916L22.1938 22.3916L23.473 21.6084L21.3302 18.1084L20.0509 18.8916ZM18.0834 18.5V22H19.5834V18.5H18.0834Z" fill="#F97316"/>
</g>
</svg>
