<svg width="25" height="24" viewBox="0 0 25 24" fill="none" xmlns="http://www.w3.org/2000/svg">
<g id="Duotone / Speedometer" opacity="0.7">
<path id="Vector" d="M22.6667 12C22.6667 17.5228 18.1895 22 12.6667 22C7.14384 22 2.66669 17.5228 2.66669 12C2.66669 6.47715 7.14384 2 12.6667 2C18.1895 2 22.6667 6.47715 22.6667 12Z" stroke="#334155" stroke-width="1.5"/>
<path id="Vector_2" d="M19.6667 19L18.1667 17.5" stroke="#334155" stroke-width="1.5" stroke-linecap="round"/>
<path id="Vector_3" d="M19.6667 5L18.1667 6.5" stroke="#334155" stroke-width="1.5" stroke-linecap="round"/>
<path id="Vector_4" d="M5.66669 19L7.16669 17.5" stroke="#334155" stroke-width="1.5" stroke-linecap="round"/>
<path id="Vector_5" d="M5.66669 5L7.16669 6.5" stroke="#334155" stroke-width="1.5" stroke-linecap="round"/>
<path id="Vector_6" d="M2.66669 12H4.66669" stroke="#334155" stroke-width="1.5" stroke-linecap="round"/>
<path id="Vector_7" d="M20.6665 12H22.6665" stroke="#334155" stroke-width="1.5" stroke-linecap="round"/>
<path id="Vector_8" d="M12.6667 4.00018V2.00018" stroke="#334155" stroke-width="1.5" stroke-linecap="round"/>
<path id="Vector_9" d="M14.445 14.364C15.6166 13.1924 15.6166 11.2929 14.445 10.1214C13.2735 8.94977 11.374 8.94977 10.2024 10.1214C9.75674 10.567 9.4455 11.4921 9.2309 12.4675C8.90998 13.926 8.74952 14.6553 9.33032 15.2361C9.91113 15.8169 10.6404 15.6564 12.0989 15.3355C13.0743 15.1209 13.9994 14.8096 14.445 14.364Z" stroke="#0369A1" stroke-width="1.5"/>
</g>
</svg>
